# xmcd CD database file
#
# Track frame offsets:
#	150
#	25851
#	57515
#	84804
#	108443
#	136740
#
# Disc length: 2207 seconds
#
# Revision: 0
# Processed by: cddbd v1.5.2PL0 Copyright (c) Steve Scherf et al.
# Submitted via: CDex 1.81
#
DISCID=41089d06
DTITLE=Hayenes, Newman, Robinson, d'Augelli, Langworthy - Tenor Gladness Band
DYEAR=2003
DGENRE=Jazz
TTITLE0=Deuceways
TTITLE1=Tad for Tadd
TTITLE2=Spike's Blues
TTITLE3=Dear John C.
TTITLE4=Kiyoshi's Delight
TTITLE5=Slipstream
EXTD=YEAR: 2003
EXTT0=
EXTT1=
EXTT2=
EXTT3=
EXTT4=
EXTT5=
PLAYORDER=
